<?xml version="1.0" standalone="no"?>
<!DOCTYPE svg PUBLIC "-//W3C//DTD SVG 20010904//EN"
 "http://www.w3.org/TR/2001/REC-SVG-20010904/DTD/svg10.dtd">
<svg version="1.0" xmlns="http://www.w3.org/2000/svg"
 width="450.000000pt" height="450.000000pt" viewBox="0 0 450.000000 450.000000"
 preserveAspectRatio="xMidYMid meet">
<metadata>
Created by potrace 1.10, written by Peter Selinger 2001-2011
</metadata>
<g transform="translate(0.000000,450.000000) scale(0.050000,-0.050000)"
fill="#ea4335" stroke="none">
<path d="M4190 8241 c-1451 -315 -2321 -1752 -1878 -3104 27 -84 138 -327 246
-540 108 -213 546 -1080 973 -1926 923 -1831 916 -1817 1034 -1917 193 -164
253 -90 797 986 1434 2836 1659 3291 1708 3468 371 1317 -424 2659 -1780 3005
-282 72 -831 86 -1100 28z m1080 -230 c1131 -302 1855 -1396 1662 -2509 -54
-309 -103 -420 -763 -1722 -348 -687 -826 -1634 -1061 -2104 l-428 -855 -317
625 c-2042 4023 -1911 3742 -1963 4211 -166 1511 1355 2759 2870 2354z"/>
<path d="M4430 7727 c-1422 -225 -2141 -1750 -1369 -2905 764 -1143 2452
-1152 3222 -18 656 966 246 2325 -838 2777 -297 123 -748 188 -1015 146z m770
-324 c1430 -486 1542 -2408 177 -3041 -1318 -611 -2747 651 -2279 2013 291
844 1255 1316 2102 1028z"/>
<path d="M3949 6871 c-285 -52 -416 -142 -323 -223 227 -195 1201 -195 1428 0
193 167 -570 320 -1105 223z m482 -111 c75 -29 30 -80 -71 -80 -97 0 -147 51
-77 79 62 25 84 25 148 1z"/>
<path d="M5320 6741 c-28 -8 -79 -30 -115 -48 l-65 -34 0 -810 c0 -445 5 -809
11 -809 6 0 34 16 64 35 79 52 376 46 530 -10 l115 -42 0 816 0 816 -118 52
c-120 54 -306 69 -422 34z m290 -811 l0 -580 -135 -6 -135 -6 0 580 c0 654
-15 601 170 595 l100 -3 0 -580z"/>
<path d="M3560 5799 l0 -821 53 -49 c58 -54 239 -116 402 -138 l105 -15 0 831
0 831 -75 12 c-228 37 -402 97 -435 150 -43 70 -50 -41 -50 -801z m375 -155
c4 -372 -2 -604 -13 -604 -11 0 -42 9 -71 20 l-51 19 0 598 0 598 65 -13 65
-14 5 -604z"/>
<path d="M4999 6550 c-134 -69 -367 -110 -618 -110 l-220 0 -6 -828 -5 -828
90 -12 c219 -29 703 56 815 143 l45 36 -5 822 -5 823 -91 -46z m-119 -291 c0
-23 9 -36 20 -29 13 8 20 -169 20 -516 0 -603 -7 -637 -136 -674 -123 -35
-350 -62 -409 -49 l-55 12 0 607 0 606 163 14 c90 8 205 26 255 40 131 36 142
35 142 -11z"/>
<path d="M3700 3780 c454 -358 1180 -394 1797 -89 264 131 291 168 35 48 -559
-262 -1256 -254 -1747 22 -120 68 -158 76 -85 19z"/>
</g>
</svg>
