<?xml version="1.0" standalone="no"?>
<!DOCTYPE svg PUBLIC "-//W3C//DTD SVG 20010904//EN"
 "http://www.w3.org/TR/2001/REC-SVG-20010904/DTD/svg10.dtd">
<svg version="1.0" xmlns="http://www.w3.org/2000/svg"
 width="300.000000pt" height="300.000000pt" viewBox="0 0 300.000000 300.000000"
 preserveAspectRatio="xMidYMid meet">
<metadata>
Created by potrace 1.10, written by Peter Selinger 2001-2011
</metadata>
<g transform="translate(0.000000,300.000000) scale(0.050000,-0.050000)"
fill="#ea4335" stroke="none">
<path d="M2901 5579 c-1046 -144 -1748 -1220 -1419 -2174 39 -113 444 -929
1072 -2159 586 -1147 556 -1154 1283 285 255 506 463 927 462 937 -1 10 6 23
17 30 25 16 374 714 425 851 431 1152 -600 2402 -1840 2230z m614 -240 c665
-169 1113 -740 1114 -1419 1 -379 9 -360 -776 -1913 -379 -750 -695 -1382
-702 -1405 -8 -23 -20 -42 -27 -42 -37 2 -1446 2843 -1485 2992 -278 1088 755
2072 1876 1787z"/>
<path d="M2804 5119 c-973 -254 -1296 -1428 -585 -2119 778 -755 2115 -250
2176 822 48 852 -764 1514 -1591 1297z m622 -173 c804 -238 1066 -1224 481
-1814 -586 -592 -1617 -336 -1857 461 -245 815 551 1598 1376 1353z"/>
<path d="M2586 4573 c-380 -97 -141 -247 362 -228 439 17 588 127 295 217
-113 34 -535 41 -657 11z m385 -74 c18 -30 -1 -44 -61 -44 -28 0 -57 5 -63 11
-22 22 16 54 63 54 26 0 54 -10 61 -21z"/>
<path d="M3533 4485 l-97 -35 -3 -545 c-2 -357 4 -542 17 -536 120 52 172 56
303 24 73 -18 136 -31 138 -28 2 3 8 243 12 534 l7 529 -60 35 c-93 54 -206
62 -317 22z m127 -535 c0 -153 -8 -250 -20 -250 -12 0 -20 97 -20 250 0 153 8
250 20 250 12 0 20 -97 20 -250z"/>
<path d="M2380 3863 c0 -441 6 -563 27 -580 145 -121 744 -135 930 -22 l63 38
0 548 0 548 -75 -37 c-81 -40 -296 -77 -450 -78 l-95 0 0 -519 c0 -324 -7
-523 -20 -531 -13 -8 -20 172 -20 524 l0 537 -124 23 c-68 13 -149 43 -180 66
l-56 41 0 -558z m820 -91 l0 -329 -55 -10 c-30 -6 -93 -17 -140 -24 l-85 -13
0 341 0 341 75 7 c41 5 104 10 140 12 l65 3 0 -328z"/>
<path d="M2469 2521 c55 -89 406 -201 630 -201 230 0 750 158 696 212 -6 6
-46 -7 -88 -29 -349 -177 -825 -177 -1174 0 -42 22 -71 30 -64 18z"/>
</g>
</svg>
